<svg width="100" height="100" viewBox="0 0 100 100" fill="none" xmlns="http://www.w3.org/2000/svg">
<path d="M16.6667 16.6667C16.6667 7.46192 24.1286 0 33.3333 0H50V33.3333H33.3333C24.1286 33.3333 16.6667 25.8714 16.6667 16.6667Z" fill="#F24E1E"/>
<path d="M50 0H66.6667C75.8714 0 83.3333 7.46192 83.3333 16.6667C83.3333 25.8714 75.8714 33.3333 66.6667 33.3333H50V0Z" fill="#FF7262"/>
<path d="M16.6667 50C16.6667 40.7952 24.1286 33.3333 33.3333 33.3333H50V66.6666H33.3333C24.1286 66.6666 16.6667 59.2047 16.6667 50Z" fill="#A259FF"/>
<rect x="50" y="33.3333" width="33.3333" height="33.3333" rx="16.6667" fill="#1ABCFE"/>
<path d="M16.6667 83.3334C16.6667 74.1286 24.1286 66.6667 33.3333 66.6667H50V83.3333C50 92.5381 42.5381 100 33.3333 100C24.1286 100 16.6667 92.5381 16.6667 83.3334Z" fill="#0ACF83"/>
</svg>
